<svg width="24" height="16" viewBox="0 0 24 16" fill="none" xmlns="http://www.w3.org/2000/svg">
<path fill-rule="evenodd" clip-rule="evenodd" d="M0 1C0 0.447715 0.447715 0 1 0H22.8184C23.3707 0 23.8184 0.447715 23.8184 1C23.8184 1.55228 23.3707 2 22.8184 2H1C0.447715 2 0 1.55228 0 1ZM0 8C0 7.44772 0.447715 7 1 7H22.8184C23.3707 7 23.8184 7.44772 23.8184 8C23.8184 8.55229 23.3707 9 22.8184 9H1C0.447715 9 0 8.55229 0 8ZM1 14C0.447715 14 0 14.4477 0 15C0 15.5523 0.447715 16 1 16H22.8184C23.3707 16 23.8184 15.5523 23.8184 15C23.8184 14.4477 23.3707 14 22.8184 14H1Z" fill="white"/>
</svg>
