<svg width="73" height="50" viewBox="0 0 73 50" fill="none" xmlns="http://www.w3.org/2000/svg">
<path d="M23.951 44.5094L68.1639 0.777974C68.6528 0.294333 69.2288 0.0359493 69.8918 0.00282324C70.5548 -0.0303028 71.1626 0.228081 71.7152 0.777974C72.2677 1.32787 72.5456 1.91917 72.549 2.55187C72.5523 3.18458 72.2761 3.77423 71.7202 4.32081L26.794 48.7926C25.9803 49.5975 25.0326 50 23.951 50C22.8693 50 21.9217 49.5975 21.1079 48.7926L0.764567 28.6685C0.275657 28.1848 0.0211559 27.6101 0.00106371 26.9443C-0.0190285 26.2784 0.245519 25.6722 0.794706 25.1256C1.34389 24.5791 1.94163 24.3058 2.58793 24.3058C3.23423 24.3058 3.83198 24.5791 4.38116 25.1256L23.951 44.5094Z" fill="#FFB03A"/>
</svg>
