<svg width="15" height="11" viewBox="0 0 15 11" fill="none" xmlns="http://www.w3.org/2000/svg">
<path d="M7.33333 3.72969C6.8029 3.72969 6.29419 3.94008 5.91912 4.31457C5.54405 4.68905 5.33333 5.19697 5.33333 5.72657C5.33333 6.25618 5.54405 6.76409 5.91912 7.13858C6.29419 7.51307 6.8029 7.72345 7.33333 7.72345C7.86377 7.72345 8.37247 7.51307 8.74755 7.13858C9.12262 6.76409 9.33333 6.25618 9.33333 5.72657C9.33333 5.19697 9.12262 4.68905 8.74755 4.31457C8.37247 3.94008 7.86377 3.72969 7.33333 3.72969ZM7.33333 9.05471C6.44928 9.05471 5.60143 8.70407 4.97631 8.07992C4.35119 7.45577 4 6.60925 4 5.72657C4 4.8439 4.35119 3.99738 4.97631 3.37323C5.60143 2.74908 6.44928 2.39844 7.33333 2.39844C8.21739 2.39844 9.06524 2.74908 9.69036 3.37323C10.3155 3.99738 10.6667 4.8439 10.6667 5.72657C10.6667 6.60925 10.3155 7.45577 9.69036 8.07992C9.06524 8.70407 8.21739 9.05471 7.33333 9.05471ZM7.33333 0.734375C4 0.734375 1.15333 2.80447 0 5.72657C1.15333 8.64868 4 10.7188 7.33333 10.7188C10.6667 10.7188 13.5133 8.64868 14.6667 5.72657C13.5133 2.80447 10.6667 0.734375 7.33333 0.734375Z" fill="#FFB03A"/>
</svg>
