<svg width="16" height="13" viewBox="0 0 16 13" fill="none" xmlns="http://www.w3.org/2000/svg">
<path d="M5.54144 8.97346C8.2345 8.97346 10.4166 7.12946 10.4166 4.85489C10.4166 2.58032 8.2345 0.736328 5.54144 0.736328C2.84838 0.736328 0.666272 2.58032 0.666272 4.85489C0.666272 5.75817 1.01082 6.59358 1.59443 7.27455C1.51239 7.49452 1.39052 7.68875 1.2616 7.85255C1.1491 7.99764 1.03425 8.10996 0.949876 8.18719C0.907687 8.22463 0.872529 8.25505 0.849091 8.27377C0.837372 8.28313 0.827996 8.29015 0.823309 8.29249L0.818621 8.29717C0.68971 8.39311 0.633459 8.5616 0.685023 8.71371C0.736587 8.86581 0.879561 8.97346 1.04128 8.97346C1.55224 8.97346 2.06788 8.84241 2.4968 8.68095C2.71244 8.59904 2.914 8.50778 3.08979 8.41418C3.80935 8.76987 4.64609 8.97346 5.54144 8.97346ZM11.1666 4.85489C11.1666 7.48282 8.84389 9.46254 6.09224 9.69889C6.66179 11.4399 8.55091 12.7176 10.7916 12.7176C11.687 12.7176 12.5237 12.514 13.2456 12.1583C13.4214 12.2519 13.6206 12.3432 13.8362 12.4251C14.2652 12.5866 14.7808 12.7176 15.2918 12.7176C15.4535 12.7176 15.5988 12.6123 15.648 12.4579C15.6972 12.3034 15.6433 12.1349 15.5121 12.039L15.5074 12.0343C15.5027 12.0296 15.4933 12.0249 15.4816 12.0156C15.4582 11.9969 15.423 11.9688 15.3808 11.929C15.2965 11.8518 15.1816 11.7394 15.0691 11.5944C14.9402 11.4306 14.8183 11.234 14.7363 11.0164C15.3199 10.3377 15.6644 9.50232 15.6644 8.5967C15.6644 6.4251 13.6745 4.64428 11.1502 4.48984C11.1596 4.60918 11.1643 4.73087 11.1643 4.85255L11.1666 4.85489Z" fill="#FFB03A"/>
</svg>
